<svg width="28" height="29" viewBox="0 0 28 29" fill="none" xmlns="http://www.w3.org/2000/svg">
<g clip-path="url(#clip0_4103_5416)">
<path fill-rule="evenodd" clip-rule="evenodd" d="M14 29C21.732 29 28 22.732 28 15C28 7.26801 21.732 1 14 1C6.26801 1 0 7.26801 0 15C0 22.732 6.26801 29 14 29ZM14.6093 8.72859H16.0226V23.2646H18.849V6.50781H14.6093C10.3697 6.50781 8.1489 8.72859 8.1489 11.9588C8.1489 14.5834 9.36023 15.9966 11.581 17.6117L7.74512 23.2646H10.9753L15.0131 17.006L13.5999 15.9966C11.7829 14.7853 10.9753 13.7758 10.9753 11.7569C10.9753 9.93993 12.1867 8.72859 14.6093 8.72859Z" fill="#121212"/>
</g>
<defs>
<clipPath id="clip0_4103_5416">
<rect y="0.910156" width="27.928" height="27.928" rx="13.964" fill="white"/>
</clipPath>
</defs>
</svg>
